<?xml version="1.0" encoding="iso-8859-1"?>
<!-- Uploaded to: SVG Repo, www.svgrepo.com, Generator: SVG Repo Mixer Tools -->
<!DOCTYPE svg PUBLIC "-//W3C//DTD SVG 1.1//EN" "http://www.w3.org/Graphics/SVG/1.1/DTD/svg11.dtd">
<svg fill="#000000" version="1.1" id="Capa_1" xmlns="http://www.w3.org/2000/svg" xmlns:xlink="http://www.w3.org/1999/xlink" 
	 width="800px" height="800px" viewBox="0 0 125.545 125.545"
	 xml:space="preserve">
<g>
	<g>
		<circle cx="41.435" cy="38.617" r="11.147"/>
		<path d="M64.014,57.738c0.008-0.088,0.014-0.178,0.021-0.266c-0.012-0.005-0.021-0.009-0.031-0.013
			c-0.035,0.016-0.068,0.031-0.11,0.051c-0.021-0.198-0.042-0.392-0.062-0.586c-0.065-0.6-0.136-1.198-0.317-1.776
			c-0.028-0.089-0.037-0.16,0.027-0.245c0.053-0.07,0.065-0.169,0.093-0.245c0.177,0.047,0.349,0.112,0.526,0.137
			c0.424,0.062,0.851,0.095,1.273,0.155c0.229,0.033,0.456,0.081,0.673,0.152c0.261,0.087,0.452,0.284,0.64,0.479
			c0.119,0.126,0.117,0.124,0.201-0.02c0.105-0.184,0.209-0.369,0.326-0.547c0.374-0.563,0.491-1.173,0.35-1.834
			c-0.057-0.26-0.157-0.504-0.293-0.734c-0.022-0.036-0.039-0.076-0.065-0.128c0.541,0.005,0.951-0.23,1.302-0.607
			c0.278-0.298,0.603-0.543,0.953-0.752c0.163-0.099,0.317-0.212,0.473-0.321c0.066-0.047,0.056-0.072-0.015-0.11
			c-0.12-0.064-0.25-0.122-0.348-0.213c-0.229-0.213-0.443-0.439-0.657-0.668c-0.174-0.187-0.345-0.376-0.579-0.483
			c-0.155-0.071-0.324-0.114-0.479-0.167c0.232-0.29,0.477-0.59,0.716-0.894c0.021-0.027,0.03-0.083,0.017-0.113
			c-0.051-0.124-0.118-0.242-0.17-0.365c-0.227-0.534-0.657-0.806-1.201-0.925c-0.321-0.07-0.645-0.051-0.962,0.026
			c-0.006-0.011-0.012-0.015-0.013-0.02c-0.005-0.021-0.01-0.043-0.014-0.065c-0.063-0.305-0.24-0.52-0.523-0.639
			c-0.114-0.05-0.183-0.117-0.241-0.223c-0.377-0.689-1.254-0.911-1.905-0.475c-0.145,0.096-0.256,0.238-0.385,0.36
			c-0.013-0.02-0.036-0.057-0.059-0.093c-0.199-0.307-0.458-0.533-0.819-0.632c-0.396-0.106-0.778-0.047-1.14,0.125
			c-0.727,0.344-1.188,0.904-1.347,1.701c-0.008,0.039-0.032,0.087-0.063,0.104c-0.444,0.264-0.913,0.406-1.43,0.251
			c-0.077-0.023-0.104,0.006-0.112,0.076c-0.008,0.078-0.018,0.155-0.033,0.232c-0.061,0.334-0.135,0.667-0.184,1.003
			c-0.032,0.223-0.059,0.455,0.138,0.642c-0.33,0.149-0.553,0.405-0.766,0.682c-0.183,0.235-0.38,0.463-0.58,0.687
			c-0.115,0.128-0.122,0.12-0.004,0.248c0.271,0.297,0.481,0.638,0.695,0.976c0.303,0.479,0.604,0.955,0.963,1.396
			c0.487,0.598,1.123,0.935,1.867,1.077c0.703,0.136,1.367,0.006,1.989-0.342c0.026-0.014,0.053-0.026,0.089-0.044
			c0.03,0.283,0.155,0.509,0.309,0.728c0.094,0.133,0.18,0.276,0.237,0.428c0.079,0.214,0.128,0.438,0.186,0.658
			c0.029,0.113,0.045,0.23,0.068,0.354c-0.084-0.038-0.11-0.002-0.099,0.062c0.015,0.079,0.04,0.157,0.062,0.234
			c0.047,0.16,0.114,0.317,0.14,0.482c0.044,0.29,0.07,0.584,0.101,0.877c-0.696-0.153-1.438-0.155-2.169,0.064
			c-7.655,2.31-12.724,0.952-15.893-1.005c-0.854-2.927-3.383-5.229-5.967-6.357c0,0-1.097-0.547-2.333-0.731
			c-1.181-0.178-2.541-0.131-2.541-0.131l-0.033-0.001c-3.851,0.266-8.308,2.596-9.09,7.112L21.22,80.773
			c-0.464,2.68,0.521,5.071,2.234,6.889c0.05,0.227,0.112,0.448,0.191,0.663c-0.283,6.019-0.837,12.597-1.392,15.226
			c-2.866,1.391-11.275,3.72-18.226,5.234c-2.76,0.601-4.51,3.324-3.909,6.086c0.521,2.394,2.639,4.026,4.992,4.026
			c0.36,0,0.727-0.039,1.093-0.118c22.147-4.82,23.984-8.072,24.867-9.635c1.204-2.131,2.075-7.666,2.599-16.473
			c4.669,0.879,9.071,1.855,11.061,2.537c1.032,3.014,2.321,11.645,2.979,18.728c0.246,2.651,2.476,4.644,5.087,4.644
			c0.158,0,0.317-0.009,0.478-0.022c2.813-0.261,4.882-2.751,4.622-5.563c-2.091-22.568-5.095-24.787-6.539-25.854
			c-1.453-1.074-4.774-2.192-9.896-3.346l3.108-17.951c2.687,1.035,5.754,1.654,9.2,1.654c2.75,0,5.738-0.395,8.951-1.271
			c0.022,0.479,0.059,0.958,0.121,1.436c0.017,0.131,0.104,0.196,0.244,0.183c0.129-0.015,0.196-0.104,0.181-0.235
			c-0.003-0.021-0.009-0.043-0.01-0.064c-0.021-0.483-0.038-0.969-0.058-1.453c0.191-0.053,0.382-0.104,0.574-0.161
			c2.289-0.689,3.584-3.104,2.895-5.394C66.258,59.183,65.243,58.192,64.014,57.738z M65.892,47.856
			c0.183-0.234,0.326-0.487,0.389-0.781c0.005-0.022,0.041-0.058,0.064-0.058c0.329-0.02,0.637,0.044,0.886,0.275
			c0.258,0.239,0.294,0.537,0.193,0.858c-0.08,0.25-0.236,0.456-0.423,0.633c-0.273,0.259-0.562,0.502-0.854,0.763
			c-0.142-0.238-0.205-0.471-0.229-0.709c-0.03-0.298-0.039-0.599-0.055-0.897C65.861,47.914,65.875,47.878,65.892,47.856z
			 M63.4,45.87c0.478-0.682,1.163-0.505,1.531-0.141c0.059,0.059,0.112,0.123,0.184,0.199c-0.353,0.097-0.604,0.291-0.795,0.575
			c-0.206-0.158-0.438-0.222-0.69-0.229c-0.025-0.001-0.057-0.026-0.071-0.049c-0.058-0.085-0.115-0.172-0.164-0.262
			C63.382,45.939,63.385,45.893,63.4,45.87z M63.375,46.946c-0.023,0.054-0.05,0.106-0.075,0.16h-0.032
			c-0.004-0.033-0.006-0.067-0.014-0.1c-0.004-0.018-0.02-0.034-0.028-0.052c-0.018,0.014-0.043,0.024-0.051,0.042
			c-0.047,0.11,0.034,0.284,0.146,0.313c0.019,0.005,0.062-0.017,0.063-0.031c0.019-0.097,0.096-0.139,0.169-0.176
			c0.141-0.072,0.165-0.199,0.14-0.315c-0.021-0.102-0.06-0.198-0.09-0.296c0.113,0.026,0.186,0.107,0.231,0.219
			c0.123,0.292,0.045,0.549-0.136,0.787c-0.107,0.145-0.218,0.288-0.336,0.446c-0.121-0.229-0.253-0.453-0.359-0.688
			c-0.076-0.168-0.008-0.36,0.136-0.479c0.065-0.053,0.178-0.069,0.226-0.025C63.432,46.809,63.402,46.879,63.375,46.946z
			 M62.862,46.275c0.124-0.067,0.28-0.036,0.412,0.087c-0.354,0.105-0.613,0.287-0.569,0.716
			C62.507,46.816,62.588,46.426,62.862,46.275z M59.588,48.98c-0.287-0.034-0.577-0.051-0.873-0.075
			c-0.199-0.409-0.015-0.79,0.179-1.166c0.354-0.031,0.646-0.21,0.936-0.389c0.04,0.194,0.072,0.385,0.118,0.571
			c0.07,0.281,0.199,0.536,0.358,0.779c0.044,0.067,0.088,0.083,0.16,0.062c0.044-0.014,0.089-0.022,0.161-0.04
			c0.019,0.104,0.037,0.206,0.055,0.307c-0.059,0.005-0.101,0.005-0.143,0.011C60.217,49.087,59.904,49.017,59.588,48.98z
			 M62.091,53.375c-0.429-0.061-0.838-0.175-1.192-0.435c-0.357-0.263-0.549-0.623-0.611-1.058
			c-0.073-0.513,0.064-0.983,0.295-1.434c0.156-0.306,0.309-0.612,0.402-0.947c0.083-0.298,0.057-0.578-0.086-0.852
			c-0.004-0.008-0.004-0.018-0.009-0.037c0.274-0.031,0.507,0.057,0.722,0.201c0.387,0.263,0.606,0.64,0.706,1.089
			c0.007,0.034-0.012,0.083-0.034,0.115c-0.248,0.366-0.43,0.76-0.503,1.199c-0.078,0.462,0.037,0.883,0.261,1.286
			c0.182,0.324,0.415,0.599,0.712,0.819c0.006,0.005,0.01,0.015,0.018,0.026C62.544,53.406,62.317,53.405,62.091,53.375z
			 M62.658,49.589c-0.026-0.128-0.044-0.263-0.081-0.392c-0.077-0.271-0.225-0.502-0.432-0.691
			c-0.159-0.145-0.329-0.277-0.498-0.411c-0.057-0.045-0.077-0.076-0.026-0.143c0.106-0.137,0.163-0.297,0.187-0.468
			c0.106,0.064,0.207,0.131,0.312,0.188c0.148,0.08,0.296,0.16,0.451,0.225c0.451,0.191,0.636,0.55,0.682,1.015
			c0.014,0.145-0.017,0.228-0.14,0.31C62.952,49.33,62.809,49.465,62.658,49.589z M63.172,53.466
			c-0.012-0.002-0.025-0.004-0.036-0.008c-0.005-0.001-0.009-0.008-0.001-0.001c0.104-0.22,0.216-0.433,0.308-0.651
			c0.081-0.196,0.137-0.402,0.206-0.604c0.171-0.491,0.499-0.867,0.891-1.195c0.485-0.409,1.031-0.725,1.606-0.99
			c0.017-0.007,0.034-0.012,0.032-0.012c0.078,0.397,0.176,0.788,0.227,1.187c0.107,0.852-0.205,1.515-0.94,1.972
			c-0.245,0.151-0.507,0.239-0.792,0.294C64.169,53.556,63.672,53.564,63.172,53.466z"/>
		<circle cx="99.434" cy="16.875" r="11.977"/>
		<path d="M125.236,58.17c-7.104-18.549-8.6-20.77-17.784-26.402c-0.246-0.151-0.5-0.271-0.761-0.373
			c-1.329-0.873-2.818-1.513-4.336-1.875c-0.01-0.003-0.02-0.003-0.03-0.006l-2.893,3.036l-2.983-3.003
			c-1.643,0.402-3.247,1.133-4.653,2.126c-0.058,0.032-0.115,0.06-0.171,0.095c-4.125,2.53-5.483,5.685-6.683,8.467
			c-1.629,3.786-3.657,8.496-15.955,15.568c-2.227,1.28-2.992,4.122-1.713,6.349c0.86,1.496,2.425,2.333,4.035,2.333
			c0.786,0,1.583-0.198,2.314-0.62c6.491-3.733,10.697-7.079,13.55-10.062v3.779c-1.312,5.675-6.779,29.563-6.796,33.128
			c-0.008,1.828,3.289,3.394,7.936,4.379l0.001,20.062c0,3.035,2.46,5.496,5.496,5.495c3.035,0,5.495-2.46,5.495-5.496
			l-0.001-18.949c0.261,0.002,0.521,0.002,0.781-0.001l-0.001,18.95c0,3.035,2.46,5.496,5.495,5.496l0,0
			c3.034,0,5.494-2.46,5.494-5.495l0.002-20.387c3.275-0.996,5.76-2.552,6.678-4.792c0.035-7.54-0.105-8.178-6.063-32.371v-8.1
			c1.271,2.738,2.762,6.513,4.861,11.996c0.709,1.851,2.473,2.987,4.343,2.987c0.553,0,1.115-0.1,1.662-0.309
			C124.957,63.258,126.155,60.569,125.236,58.17z"/>
	</g>
</g>
</svg>